<?xml version="1.0" encoding="UTF-8" standalone="no"?>
<!-- Created with Inkscape (http://www.inkscape.org/) -->

<svg
   xmlns:dc="http://purl.org/dc/elements/1.1/"
   xmlns:cc="http://creativecommons.org/ns#"
   xmlns:rdf="http://www.w3.org/1999/02/22-rdf-syntax-ns#"
   xmlns:svg="http://www.w3.org/2000/svg"
   xmlns="http://www.w3.org/2000/svg"
   xmlns:sodipodi="http://sodipodi.sourceforge.net/DTD/sodipodi-0.dtd"
   xmlns:inkscape="http://www.inkscape.org/namespaces/inkscape"
   width="64"
   height="64"
   id="svg11527"
   version="1.1"
   inkscape:version="0.48.1 r9760"
   sodipodi:docname="funnel.svg">
  <defs
     id="defs11529" />
  <sodipodi:namedview
     id="base"
     pagecolor="#ffffff"
     bordercolor="#666666"
     borderopacity="1.0"
     inkscape:pageopacity="0.0"
     inkscape:pageshadow="2"
     inkscape:zoom="8.140625"
     inkscape:cx="32"
     inkscape:cy="32"
     inkscape:document-units="px"
     inkscape:current-layer="layer1"
     showgrid="false"
     inkscape:window-width="1366"
     inkscape:window-height="714"
     inkscape:window-x="0"
     inkscape:window-y="26"
     inkscape:window-maximized="1">
    <inkscape:grid
       type="xygrid"
       id="grid11535"
       empspacing="4"
       visible="true"
       enabled="true"
       snapvisiblegridlinesonly="true" />
  </sodipodi:namedview>
  <metadata
     id="metadata11532">
    <rdf:RDF>
      <cc:Work
         rdf:about="">
        <dc:format>image/svg+xml</dc:format>
        <dc:type
           rdf:resource="http://purl.org/dc/dcmitype/StillImage" />
        <dc:title />
      </cc:Work>
    </rdf:RDF>
  </metadata>
  <g
     inkscape:label="Layer 1"
     inkscape:groupmode="layer"
     id="layer1"
     transform="translate(0,-988.36218)">
    <path
       style="fill:#333333;fill-opacity:1;stroke:none"
       d="M 32 6 C 20.40202 6 11 8.2385762 11 11 C 11 11.345178 11.157761 11.674512 11.4375 12 C 13.395672 14.278415 21.851768 16 32 16 C 42.148232 16 50.604328 14.278415 52.5625 12 C 52.842239 11.674512 53 11.345178 53 11 C 53 8.2385762 43.59798 6 32 6 z M 52.5625 12 C 52.669367 12.124344 52.743232 12.248865 52.8125 12.375 L 53 12 L 52.5625 12 z M 11.4375 12 L 11 12 L 11.1875 12.375 C 11.256768 12.248865 11.330633 12.124344 11.4375 12 z M 12.5 14.84375 L 28 44 L 28 57 C 28 57.552285 29.790861 58 32 58 C 34.209139 58 36 57.552285 36 57 L 36 44 L 51.5 14.84375 C 48.412592 16.690141 40.855458 18 32 18 C 23.144542 18 15.587408 16.690141 12.5 14.84375 z "
       transform="translate(0,988.36218)"
       id="path5869" />
  </g>
</svg>
