<?xml version="1.0" encoding="UTF-8" standalone="no"?>
<!-- Created with Inkscape (http://www.inkscape.org/) -->

<svg
   xmlns:dc="http://purl.org/dc/elements/1.1/"
   xmlns:cc="http://creativecommons.org/ns#"
   xmlns:rdf="http://www.w3.org/1999/02/22-rdf-syntax-ns#"
   xmlns:svg="http://www.w3.org/2000/svg"
   xmlns="http://www.w3.org/2000/svg"
   xmlns:sodipodi="http://sodipodi.sourceforge.net/DTD/sodipodi-0.dtd"
   xmlns:inkscape="http://www.inkscape.org/namespaces/inkscape"
   width="73.941139"
   height="64.231071"
   id="svg9512"
   version="1.1"
   inkscape:version="0.48.1 r9760"
   sodipodi:docname="New document 27">
  <defs
     id="defs9514" />
  <sodipodi:namedview
     id="base"
     pagecolor="#ffffff"
     bordercolor="#666666"
     borderopacity="1.0"
     inkscape:pageopacity="0.0"
     inkscape:pageshadow="2"
     inkscape:zoom="0.35"
     inkscape:cx="60.542001"
     inkscape:cy="37.829817"
     inkscape:document-units="px"
     inkscape:current-layer="layer1"
     showgrid="false"
     fit-margin-top="0"
     fit-margin-left="0"
     fit-margin-right="0"
     fit-margin-bottom="0"
     inkscape:window-width="802"
     inkscape:window-height="429"
     inkscape:window-x="0"
     inkscape:window-y="54"
     inkscape:window-maximized="0" />
  <metadata
     id="metadata9517">
    <rdf:RDF>
      <cc:Work
         rdf:about="">
        <dc:format>image/svg+xml</dc:format>
        <dc:type
           rdf:resource="http://purl.org/dc/dcmitype/StillImage" />
        <dc:title></dc:title>
      </cc:Work>
    </rdf:RDF>
  </metadata>
  <g
     inkscape:label="Layer 1"
     inkscape:groupmode="layer"
     id="layer1"
     transform="translate(-314.458,-505.96093)">
    <path
       style="fill:#1a1a1a;fill-rule:evenodd;display:inline"
       d="m 342.04505,505.97314 c -1.51609,0.0652 -3.11476,0.27006 -4.76885,0.61773 -2.38258,0.49973 -5.00747,1.32102 -7.75863,2.42148 -0.0241,0.01 -0.0979,0.0495 -0.12355,0.14825 l -0.34592,1.18604 c -5.20109,17.3696 -9.23051,32.35951 -14.57833,50.48055 -0.0377,0.12361 0.0205,0.25338 0.0988,0.32122 l 0.46948,0.34592 c 0,0 -0.006,0.0182 0,0.0247 0.1108,0.0731 0.22733,0.0562 0.2718,0.0494 0.002,0 0.0247,0 0.0247,0 2.57554,-0.96856 4.86996,-1.66218 7.01737,-2.12498 2.09314,-0.44923 3.97234,-0.67543 5.7572,-0.66714 1.49392,0.01 2.9042,0.16721 4.29938,0.46947 1.26026,0.27662 2.47231,0.67408 3.73106,1.21074 4.84747,1.88112 8.73306,5.82283 13.26879,7.73397 0.99494,0.41758 2.02543,0.77983 3.03921,1.06249 1.09895,0.30903 2.22831,0.53356 3.36043,0.69185 1.21352,0.16809 2.44987,0.2501 3.70635,0.24709 1.33488,-0.007 2.73651,-0.096 4.12641,-0.29651 1.46904,-0.2118 2.99015,-0.55646 4.52175,-0.98836 1.61,-0.45224 3.25945,-1.03468 4.94181,-1.72963 0.002,0 0.0247,0 0.0247,0 0.0467,-0.0294 0.16509,-0.0861 0.22238,-0.19767 4.86287,-17.44529 9.8048,-34.15187 15.02305,-51.49362 0.0128,-0.0414 0.0247,-0.0851 0.0247,-0.12355 0,-0.20049 -0.17558,-0.37341 -0.34593,-0.51889 -0.0942,-0.0874 -0.23152,-0.2094 -0.32121,-0.24709 -0.1907,-0.0874 -0.38597,-0.0586 -0.44477,-0.0247 -0.002,0 0,0.0247 0,0.0247 -1.71928,0.68667 -3.39043,1.25267 -4.96651,1.70492 -1.50748,0.43114 -2.9604,0.76978 -4.34879,0.98837 -1.32206,0.20803 -2.62601,0.30388 -3.85461,0.32121 -1.15925,0.0158 -2.29146,-0.0439 -3.38514,-0.19767 -1.96275,-0.27587 -3.86003,-0.82999 -5.7572,-1.68021 -1.88586,-0.84344 -3.55499,-1.89491 -4.81826,-2.718 -2.53331,-1.36954 -4.75286,-3.32607 -7.14079,-4.57113 l -0.0741,-0.0247 c -3.11371,-1.60622 -6.09541,-2.37835 -9.41414,-2.44619 -0.48616,-0.01 -0.97718,-0.0217 -1.48254,0 z"
       id="path3414"
       inkscape:connector-curvature="0"
       sodipodi:nodetypes="cccccccccccccccccccccccccsccccccccccccccc" />
  </g>
</svg>
